%TF.GenerationSoftware,KiCad,Pcbnew,9.0.8-9.0.8~ubuntu22.04.1*%
%TF.CreationDate,2026-03-19T16:02:00-05:00*%
%TF.ProjectId,PnP_Power,506e505f-506f-4776-9572-2e6b69636164,rev?*%
%TF.SameCoordinates,Original*%
%TF.FileFunction,Soldermask,Top*%
%TF.FilePolarity,Negative*%
%FSLAX46Y46*%
G04 Gerber Fmt 4.6, Leading zero omitted, Abs format (unit mm)*
G04 Created by KiCad (PCBNEW 9.0.8-9.0.8~ubuntu22.04.1) date 2026-03-19 16:02:00*
%MOMM*%
%LPD*%
G01*
G04 APERTURE LIST*
G04 Aperture macros list*
%AMRoundRect*
0 Rectangle with rounded corners*
0 $1 Rounding radius*
0 $2 $3 $4 $5 $6 $7 $8 $9 X,Y pos of 4 corners*
0 Add a 4 corners polygon primitive as box body*
4,1,4,$2,$3,$4,$5,$6,$7,$8,$9,$2,$3,0*
0 Add four circle primitives for the rounded corners*
1,1,$1+$1,$2,$3*
1,1,$1+$1,$4,$5*
1,1,$1+$1,$6,$7*
1,1,$1+$1,$8,$9*
0 Add four rect primitives between the rounded corners*
20,1,$1+$1,$2,$3,$4,$5,0*
20,1,$1+$1,$4,$5,$6,$7,0*
20,1,$1+$1,$6,$7,$8,$9,0*
20,1,$1+$1,$8,$9,$2,$3,0*%
G04 Aperture macros list end*
%ADD10C,1.600000*%
%ADD11RoundRect,0.250000X0.550000X-0.550000X0.550000X0.550000X-0.550000X0.550000X-0.550000X-0.550000X0*%
%ADD12R,1.600000X1.600000*%
%ADD13O,1.600000X1.600000*%
%ADD14RoundRect,0.237500X-0.300000X-0.237500X0.300000X-0.237500X0.300000X0.237500X-0.300000X0.237500X0*%
%ADD15RoundRect,0.237500X0.237500X-0.300000X0.237500X0.300000X-0.237500X0.300000X-0.237500X-0.300000X0*%
%ADD16C,2.200000*%
%ADD17R,1.700000X1.700000*%
%ADD18C,1.700000*%
%ADD19RoundRect,0.237500X-0.237500X0.287500X-0.237500X-0.287500X0.237500X-0.287500X0.237500X0.287500X0*%
%ADD20C,3.450000*%
%ADD21C,1.524000*%
%ADD22RoundRect,0.237500X-0.250000X-0.237500X0.250000X-0.237500X0.250000X0.237500X-0.250000X0.237500X0*%
%ADD23RoundRect,0.098000X-0.609000X-0.294000X0.609000X-0.294000X0.609000X0.294000X-0.609000X0.294000X0*%
%ADD24RoundRect,0.237500X0.300000X0.237500X-0.300000X0.237500X-0.300000X-0.237500X0.300000X-0.237500X0*%
%ADD25R,1.358000X1.358000*%
%ADD26C,1.358000*%
%ADD27RoundRect,0.237500X0.250000X0.237500X-0.250000X0.237500X-0.250000X-0.237500X0.250000X-0.237500X0*%
%ADD28O,1.954000X4.254000*%
%ADD29O,1.954000X3.954000*%
%ADD30O,3.954000X1.954000*%
%ADD31RoundRect,0.150000X0.587500X0.150000X-0.587500X0.150000X-0.587500X-0.150000X0.587500X-0.150000X0*%
%ADD32RoundRect,0.250000X-0.550000X0.550000X-0.550000X-0.550000X0.550000X-0.550000X0.550000X0.550000X0*%
%ADD33R,1.350000X0.660000*%
%ADD34R,5.250000X10.300000*%
%ADD35R,5.250000X6.230000*%
%ADD36RoundRect,0.237500X-0.237500X0.250000X-0.237500X-0.250000X0.237500X-0.250000X0.237500X0.250000X0*%
%ADD37RoundRect,0.237500X0.237500X-0.250000X0.237500X0.250000X-0.237500X0.250000X-0.237500X-0.250000X0*%
%ADD38C,3.200000*%
%ADD39C,1.562000*%
%ADD40RoundRect,0.102000X-0.679000X-0.679000X0.679000X-0.679000X0.679000X0.679000X-0.679000X0.679000X0*%
G04 APERTURE END LIST*
D10*
%TO.C,C6*%
X115824000Y-139446000D03*
D11*
X115824000Y-142946000D03*
%TD*%
D12*
%TO.C,U6*%
X209296000Y-89916000D03*
D13*
X209296000Y-87376000D03*
X209296000Y-84836000D03*
X209296000Y-82296000D03*
X209296000Y-79756000D03*
X209296000Y-77216000D03*
X209296000Y-74676000D03*
X209296000Y-72136000D03*
X196596000Y-89916000D03*
X196596000Y-87376000D03*
X196596000Y-84836000D03*
X196596000Y-82296000D03*
X196596000Y-79756000D03*
X196596000Y-77216000D03*
X196596000Y-74676000D03*
X196596000Y-72136000D03*
%TD*%
D12*
%TO.C,U3*%
X122428000Y-71628000D03*
D13*
X122428000Y-74168000D03*
X122428000Y-76708000D03*
X122428000Y-79248000D03*
X122428000Y-81788000D03*
X122428000Y-84328000D03*
X122428000Y-86868000D03*
X122428000Y-89408000D03*
X135128000Y-71628000D03*
X135128000Y-74168000D03*
X135128000Y-76708000D03*
X135128000Y-79248000D03*
X135128000Y-81788000D03*
X135128000Y-84328000D03*
X135128000Y-86868000D03*
X135128000Y-89408000D03*
%TD*%
D12*
%TO.C,U5*%
X209032000Y-116047500D03*
D13*
X209032000Y-113507500D03*
X209032000Y-110967500D03*
X209032000Y-108427500D03*
X209032000Y-105887500D03*
X209032000Y-103347500D03*
X209032000Y-100807500D03*
X209032000Y-98267500D03*
X196332000Y-116047500D03*
X196332000Y-113507500D03*
X196332000Y-110967500D03*
X196332000Y-108427500D03*
X196332000Y-105887500D03*
X196332000Y-103347500D03*
X196332000Y-100807500D03*
X196332000Y-98267500D03*
%TD*%
D12*
%TO.C,U2*%
X122428000Y-124714000D03*
D13*
X122428000Y-127254000D03*
X122428000Y-129794000D03*
X122428000Y-132334000D03*
X122428000Y-134874000D03*
X122428000Y-137414000D03*
X122428000Y-139954000D03*
X122428000Y-142494000D03*
X135128000Y-124714000D03*
X135128000Y-127254000D03*
X135128000Y-129794000D03*
X135128000Y-132334000D03*
X135128000Y-134874000D03*
X135128000Y-137414000D03*
X135128000Y-139954000D03*
X135128000Y-142494000D03*
%TD*%
D12*
%TO.C,U1*%
X209296000Y-142748000D03*
D13*
X209296000Y-140208000D03*
X209296000Y-137668000D03*
X209296000Y-135128000D03*
X209296000Y-132588000D03*
X209296000Y-130048000D03*
X209296000Y-127508000D03*
X209296000Y-124968000D03*
X196596000Y-142748000D03*
X196596000Y-140208000D03*
X196596000Y-137668000D03*
X196596000Y-135128000D03*
X196596000Y-132588000D03*
X196596000Y-130048000D03*
X196596000Y-127508000D03*
X196596000Y-124968000D03*
%TD*%
D12*
%TO.C,U4*%
X122428000Y-98044000D03*
D13*
X122428000Y-100584000D03*
X122428000Y-103124000D03*
X122428000Y-105664000D03*
X122428000Y-108204000D03*
X122428000Y-110744000D03*
X122428000Y-113284000D03*
X122428000Y-115824000D03*
X135128000Y-98044000D03*
X135128000Y-100584000D03*
X135128000Y-103124000D03*
X135128000Y-105664000D03*
X135128000Y-108204000D03*
X135128000Y-110744000D03*
X135128000Y-113284000D03*
X135128000Y-115824000D03*
%TD*%
D14*
%TO.C,C19*%
X216053500Y-157988000D03*
X217778500Y-157988000D03*
%TD*%
D15*
%TO.C,C18*%
X212344000Y-149857000D03*
X212344000Y-148132000D03*
%TD*%
D14*
%TO.C,C12*%
X129495000Y-157861000D03*
X131220000Y-157861000D03*
%TD*%
D16*
%TO.C,H2*%
X223266000Y-52324000D03*
%TD*%
D17*
%TO.C,J6*%
X131831000Y-139954000D03*
D18*
X129291000Y-139954000D03*
X131831000Y-137414000D03*
X129291000Y-137414000D03*
X131831000Y-134874000D03*
X129291000Y-134874000D03*
%TD*%
D19*
%TO.C,D1*%
X206248000Y-51449000D03*
X206248000Y-53199000D03*
%TD*%
D17*
%TO.C,J7*%
X199893000Y-127508000D03*
D18*
X202433000Y-127508000D03*
X199893000Y-130048000D03*
X202433000Y-130048000D03*
X199893000Y-132588000D03*
X202433000Y-132588000D03*
%TD*%
D20*
%TO.C,Conn19*%
X216864500Y-168910000D03*
X212036500Y-168906000D03*
D21*
X215719500Y-160270000D03*
X213179500Y-160270000D03*
%TD*%
D20*
%TO.C,Conn13*%
X121106500Y-168910000D03*
X116278500Y-168906000D03*
D21*
X119961500Y-160270000D03*
X117421500Y-160270000D03*
%TD*%
D22*
%TO.C,R17*%
X192889500Y-157988000D03*
X194714500Y-157988000D03*
%TD*%
D20*
%TO.C,Conn21*%
X197814500Y-168910000D03*
X192986500Y-168906000D03*
D21*
X196669500Y-160270000D03*
X194129500Y-160270000D03*
%TD*%
D17*
%TO.C,J3*%
X199639000Y-100711000D03*
D18*
X202179000Y-100711000D03*
X199639000Y-103251000D03*
X202179000Y-103251000D03*
X199639000Y-105791000D03*
X202179000Y-105791000D03*
%TD*%
D23*
%TO.C,U9*%
X153685000Y-70170000D03*
X153685000Y-71120000D03*
X153685000Y-72070000D03*
X156195000Y-72070000D03*
X156195000Y-71120000D03*
X156195000Y-70170000D03*
%TD*%
D20*
%TO.C,Conn4*%
X223403000Y-133888500D03*
X223403000Y-144048500D03*
D21*
X214767000Y-135158500D03*
X214767000Y-137698500D03*
X214767000Y-140238500D03*
X214767000Y-142778500D03*
%TD*%
D14*
%TO.C,C21*%
X196495500Y-157988000D03*
X198220500Y-157988000D03*
%TD*%
D17*
%TO.C,J4*%
X131831000Y-113284000D03*
D18*
X129291000Y-113284000D03*
X131831000Y-110744000D03*
X129291000Y-110744000D03*
X131831000Y-108204000D03*
X129291000Y-108204000D03*
%TD*%
D20*
%TO.C,Conn10*%
X150062500Y-168910000D03*
X145234500Y-168906000D03*
D21*
X148917500Y-160270000D03*
X146377500Y-160270000D03*
%TD*%
D24*
%TO.C,C9*%
X156310500Y-75184000D03*
X154585500Y-75184000D03*
%TD*%
D22*
%TO.C,R10*%
X183103000Y-157988000D03*
X184928000Y-157988000D03*
%TD*%
D16*
%TO.C,H1*%
X108204000Y-52324000D03*
%TD*%
D14*
%TO.C,C16*%
X167944000Y-157861000D03*
X169669000Y-157861000D03*
%TD*%
D22*
%TO.C,R13*%
X154893000Y-157854000D03*
X156718000Y-157854000D03*
%TD*%
D20*
%TO.C,Conn9*%
X108204000Y-155702000D03*
X108204000Y-148082000D03*
D21*
X116840000Y-154432000D03*
X116840000Y-151892000D03*
X116840000Y-149352000D03*
%TD*%
D25*
%TO.C,U8*%
X203200000Y-65024000D03*
D26*
X200660000Y-65024000D03*
X198120000Y-65024000D03*
%TD*%
D27*
%TO.C,R6*%
X156360500Y-64008000D03*
X154535500Y-64008000D03*
%TD*%
D16*
%TO.C,J1*%
X223083585Y-60905271D03*
D28*
X212583585Y-60905271D03*
D29*
X218583585Y-60905271D03*
D30*
X215583585Y-56105271D03*
%TD*%
D27*
%TO.C,R8*%
X156360500Y-66040000D03*
X154535500Y-66040000D03*
%TD*%
D31*
%TO.C,Q1*%
X130350500Y-150302000D03*
X130350500Y-148402000D03*
X128475500Y-149352000D03*
%TD*%
D17*
%TO.C,J8*%
X120777000Y-154432000D03*
D18*
X120777000Y-151892000D03*
X120777000Y-149352000D03*
%TD*%
D22*
%TO.C,R4*%
X135612500Y-157861000D03*
X137437500Y-157861000D03*
%TD*%
D17*
%TO.C,J5*%
X131831000Y-86868000D03*
D18*
X129291000Y-86868000D03*
X131831000Y-84328000D03*
X129291000Y-84328000D03*
X131831000Y-81788000D03*
X129291000Y-81788000D03*
%TD*%
D22*
%TO.C,R11*%
X173712500Y-157861000D03*
X175537500Y-157861000D03*
%TD*%
D20*
%TO.C,Conn18*%
X223397000Y-148715000D03*
X223393000Y-153543000D03*
D21*
X214757000Y-149860000D03*
X214757000Y-152400000D03*
%TD*%
D24*
%TO.C,C7*%
X204062500Y-68902000D03*
X202337500Y-68902000D03*
%TD*%
D22*
%TO.C,R15*%
X212447500Y-157988000D03*
X214272500Y-157988000D03*
%TD*%
D16*
%TO.C,H3*%
X108204000Y-169164000D03*
%TD*%
D22*
%TO.C,R12*%
X164314500Y-157861000D03*
X166139500Y-157861000D03*
%TD*%
D14*
%TO.C,C14*%
X186716500Y-157988000D03*
X188441500Y-157988000D03*
%TD*%
D20*
%TO.C,Conn16*%
X169037000Y-168910000D03*
X164209000Y-168906000D03*
D21*
X167892000Y-160270000D03*
X165352000Y-160270000D03*
%TD*%
D20*
%TO.C,Conn1*%
X108581000Y-62867000D03*
X108585000Y-58039000D03*
D21*
X117221000Y-61722000D03*
X117221000Y-59182000D03*
%TD*%
D22*
%TO.C,R16*%
X202441000Y-157988000D03*
X204266000Y-157988000D03*
%TD*%
D20*
%TO.C,Conn11*%
X140410500Y-168910000D03*
X135582500Y-168906000D03*
D21*
X139265500Y-160270000D03*
X136725500Y-160270000D03*
%TD*%
D22*
%TO.C,R9*%
X116435500Y-157988000D03*
X118260500Y-157988000D03*
%TD*%
D14*
%TO.C,C11*%
X139274000Y-157868000D03*
X140999000Y-157868000D03*
%TD*%
D22*
%TO.C,R1*%
X145055500Y-157861000D03*
X146880500Y-157861000D03*
%TD*%
D32*
%TO.C,C2*%
X215392000Y-97759500D03*
D10*
X215392000Y-101259500D03*
%TD*%
D20*
%TO.C,Conn8*%
X125247400Y-52705000D03*
X132867400Y-52705000D03*
D21*
X126517400Y-61341000D03*
X129057400Y-61341000D03*
X131597400Y-61341000D03*
%TD*%
D20*
%TO.C,Conn6*%
X223139000Y-107442000D03*
X223139000Y-117602000D03*
D21*
X214503000Y-108712000D03*
X214503000Y-111252000D03*
X214503000Y-113792000D03*
X214503000Y-116332000D03*
%TD*%
D11*
%TO.C,C3*%
X115824000Y-116460651D03*
D10*
X115824000Y-112960651D03*
%TD*%
D20*
%TO.C,Conn7*%
X223139000Y-80772000D03*
X223139000Y-90932000D03*
D21*
X214503000Y-82042000D03*
X214503000Y-84582000D03*
X214503000Y-87122000D03*
X214503000Y-89662000D03*
%TD*%
D22*
%TO.C,R5*%
X125833500Y-157861000D03*
X127658500Y-157861000D03*
%TD*%
D20*
%TO.C,Conn2*%
X108204000Y-80518000D03*
X108204000Y-70358000D03*
D21*
X116840000Y-79248000D03*
X116840000Y-76708000D03*
X116840000Y-74168000D03*
X116840000Y-71628000D03*
%TD*%
D20*
%TO.C,Conn15*%
X178510500Y-168910000D03*
X173682500Y-168906000D03*
D21*
X177365500Y-160270000D03*
X174825500Y-160270000D03*
%TD*%
D11*
%TO.C,C4*%
X115824000Y-90044651D03*
D10*
X115824000Y-86544651D03*
%TD*%
D14*
%TO.C,C13*%
X120041500Y-157988000D03*
X121766500Y-157988000D03*
%TD*%
D33*
%TO.C,U7*%
X159042000Y-60072000D03*
X159042000Y-61072000D03*
X159042000Y-62072000D03*
X159042000Y-63072000D03*
X159042000Y-64072000D03*
X159042000Y-65072000D03*
X159042000Y-66072000D03*
X159042000Y-67072000D03*
X159042000Y-68072000D03*
X159042000Y-69072000D03*
X159042000Y-70072000D03*
X159042000Y-71072000D03*
X159042000Y-72072000D03*
X159042000Y-73072000D03*
X159042000Y-74072000D03*
X177292000Y-74072000D03*
X177292000Y-73072000D03*
X177292000Y-72072000D03*
X177292000Y-71072000D03*
X177292000Y-70072000D03*
X177292000Y-69072000D03*
X177292000Y-68072000D03*
X177292000Y-67072000D03*
X177292000Y-66072000D03*
X177292000Y-65072000D03*
X177292000Y-64072000D03*
X177292000Y-63072000D03*
X177292000Y-62072000D03*
X177292000Y-61072000D03*
X177292000Y-60072000D03*
D34*
X165117000Y-67072000D03*
D35*
X171217000Y-71237000D03*
X171217000Y-62907000D03*
%TD*%
D32*
%TO.C,C1*%
X215656000Y-71499349D03*
D10*
X215656000Y-74999349D03*
%TD*%
D14*
%TO.C,C10*%
X148717000Y-157861000D03*
X150442000Y-157861000D03*
%TD*%
D17*
%TO.C,J9*%
X126492000Y-65024000D03*
D18*
X129032000Y-65024000D03*
X131572000Y-65024000D03*
%TD*%
D14*
%TO.C,C20*%
X206047000Y-157988000D03*
X207772000Y-157988000D03*
%TD*%
D20*
%TO.C,Conn17*%
X159639000Y-168910000D03*
X154811000Y-168906000D03*
D21*
X158494000Y-160270000D03*
X155954000Y-160270000D03*
%TD*%
D19*
%TO.C,D2*%
X199136000Y-51449000D03*
X199136000Y-53199000D03*
%TD*%
D22*
%TO.C,R7*%
X154535500Y-68042000D03*
X156360500Y-68042000D03*
%TD*%
D20*
%TO.C,Conn12*%
X130700000Y-168910000D03*
X125872000Y-168906000D03*
D21*
X129555000Y-160270000D03*
X127015000Y-160270000D03*
%TD*%
D14*
%TO.C,C17*%
X158522500Y-157861000D03*
X160247500Y-157861000D03*
%TD*%
%TO.C,C8*%
X197632500Y-68902000D03*
X199357500Y-68902000D03*
%TD*%
D20*
%TO.C,Conn5*%
X108585000Y-106680000D03*
X108585000Y-96520000D03*
D21*
X117221000Y-105410000D03*
X117221000Y-102870000D03*
X117221000Y-100330000D03*
X117221000Y-97790000D03*
%TD*%
D36*
%TO.C,R3*%
X197104000Y-51411500D03*
X197104000Y-53236500D03*
%TD*%
%TO.C,R18*%
X132461000Y-71604500D03*
X132461000Y-73429500D03*
%TD*%
%TO.C,R2*%
X204216000Y-51411500D03*
X204216000Y-53236500D03*
%TD*%
D31*
%TO.C,Q2*%
X130477500Y-73467000D03*
X130477500Y-71567000D03*
X128602500Y-72517000D03*
%TD*%
D17*
%TO.C,J2*%
X199898000Y-74676000D03*
D18*
X202438000Y-74676000D03*
X199898000Y-77216000D03*
X202438000Y-77216000D03*
X199898000Y-79756000D03*
X202438000Y-79756000D03*
%TD*%
D36*
%TO.C,R19*%
X132334000Y-148439500D03*
X132334000Y-150264500D03*
%TD*%
D20*
%TO.C,Conn3*%
X108204000Y-133604000D03*
X108204000Y-123444000D03*
D21*
X116840000Y-132334000D03*
X116840000Y-129794000D03*
X116840000Y-127254000D03*
X116840000Y-124714000D03*
%TD*%
D20*
%TO.C,Conn14*%
X188087000Y-168910000D03*
X183259000Y-168906000D03*
D21*
X186942000Y-160270000D03*
X184402000Y-160270000D03*
%TD*%
D37*
%TO.C,R14*%
X212344000Y-153463000D03*
X212344000Y-151638000D03*
%TD*%
D32*
%TO.C,C5*%
X215900000Y-124516000D03*
D10*
X215900000Y-128016000D03*
%TD*%
D16*
%TO.C,H4*%
X223266000Y-169164000D03*
%TD*%
D14*
%TO.C,C15*%
X177318500Y-157861000D03*
X179043500Y-157861000D03*
%TD*%
D20*
%TO.C,Conn20*%
X207408000Y-168910000D03*
X202580000Y-168906000D03*
D21*
X206263000Y-160270000D03*
X203723000Y-160270000D03*
%TD*%
D38*
%TO.C,A1*%
X141732000Y-57658000D03*
X141732000Y-132588000D03*
X156972000Y-108458000D03*
X184912000Y-108458000D03*
X189992000Y-56388000D03*
X189992000Y-138938000D03*
D39*
X141732000Y-105918000D03*
X141732000Y-103378000D03*
X141732000Y-100838000D03*
X141732000Y-98298000D03*
X189992000Y-77978000D03*
X141732000Y-95758000D03*
X141732000Y-93218000D03*
X189992000Y-80518000D03*
X141732000Y-136398000D03*
X141732000Y-138938000D03*
X141732000Y-90678000D03*
X141732000Y-88138000D03*
X141732000Y-84074000D03*
X141732000Y-81534000D03*
X141732000Y-78994000D03*
X141732000Y-76454000D03*
X141732000Y-73914000D03*
X141732000Y-71374000D03*
X141732000Y-110998000D03*
X141732000Y-113538000D03*
X141732000Y-116078000D03*
X141732000Y-118618000D03*
X141732000Y-121158000D03*
X141732000Y-123698000D03*
X141732000Y-126238000D03*
X141732000Y-128778000D03*
X144272000Y-136398000D03*
X144272000Y-138938000D03*
X146812000Y-136398000D03*
X146812000Y-138938000D03*
X149352000Y-136398000D03*
X149352000Y-138938000D03*
X151892000Y-136398000D03*
X151892000Y-138938000D03*
X154432000Y-136398000D03*
X154432000Y-138938000D03*
X156972000Y-136398000D03*
X156972000Y-138938000D03*
X159512000Y-136398000D03*
X159512000Y-138938000D03*
X162052000Y-136398000D03*
X162052000Y-138938000D03*
X164592000Y-136398000D03*
X164592000Y-138938000D03*
X167132000Y-136398000D03*
X167132000Y-138938000D03*
X169672000Y-136398000D03*
X169672000Y-138938000D03*
X172212000Y-136398000D03*
X172212000Y-138938000D03*
X174752000Y-136398000D03*
X174752000Y-138938000D03*
X177292000Y-136398000D03*
X177292000Y-138938000D03*
X179832000Y-136398000D03*
X179832000Y-138938000D03*
X182372000Y-136398000D03*
X182372000Y-138938000D03*
X189992000Y-93218000D03*
X189992000Y-95758000D03*
X189992000Y-98298000D03*
X189992000Y-100838000D03*
X189992000Y-103378000D03*
X189992000Y-105918000D03*
X189992000Y-108458000D03*
X189992000Y-110998000D03*
X189992000Y-116078000D03*
X189992000Y-118618000D03*
X189992000Y-121158000D03*
X189992000Y-123698000D03*
X189992000Y-126238000D03*
X189992000Y-128778000D03*
X189992000Y-131064000D03*
X189992000Y-133604000D03*
X141732000Y-66294000D03*
X189992000Y-83058000D03*
X189992000Y-85598000D03*
X141732000Y-68834000D03*
X184912000Y-136398000D03*
X184912000Y-138938000D03*
X189992000Y-72898000D03*
D40*
X189992000Y-70358000D03*
D39*
X189992000Y-75438000D03*
X141732000Y-61214000D03*
X141732000Y-63754000D03*
X189992000Y-88138000D03*
%TD*%
M02*
