%TF.GenerationSoftware,KiCad,Pcbnew,9.0.8-9.0.8~ubuntu22.04.1*%
%TF.CreationDate,2026-03-19T16:01:59-05:00*%
%TF.ProjectId,PnP_Power,506e505f-506f-4776-9572-2e6b69636164,rev?*%
%TF.SameCoordinates,Original*%
%TF.FileFunction,Paste,Top*%
%TF.FilePolarity,Positive*%
%FSLAX46Y46*%
G04 Gerber Fmt 4.6, Leading zero omitted, Abs format (unit mm)*
G04 Created by KiCad (PCBNEW 9.0.8-9.0.8~ubuntu22.04.1) date 2026-03-19 16:01:59*
%MOMM*%
%LPD*%
G01*
G04 APERTURE LIST*
G04 Aperture macros list*
%AMRoundRect*
0 Rectangle with rounded corners*
0 $1 Rounding radius*
0 $2 $3 $4 $5 $6 $7 $8 $9 X,Y pos of 4 corners*
0 Add a 4 corners polygon primitive as box body*
4,1,4,$2,$3,$4,$5,$6,$7,$8,$9,$2,$3,0*
0 Add four circle primitives for the rounded corners*
1,1,$1+$1,$2,$3*
1,1,$1+$1,$4,$5*
1,1,$1+$1,$6,$7*
1,1,$1+$1,$8,$9*
0 Add four rect primitives between the rounded corners*
20,1,$1+$1,$2,$3,$4,$5,0*
20,1,$1+$1,$4,$5,$6,$7,0*
20,1,$1+$1,$6,$7,$8,$9,0*
20,1,$1+$1,$8,$9,$2,$3,0*%
G04 Aperture macros list end*
%ADD10RoundRect,0.237500X-0.300000X-0.237500X0.300000X-0.237500X0.300000X0.237500X-0.300000X0.237500X0*%
%ADD11RoundRect,0.237500X0.237500X-0.300000X0.237500X0.300000X-0.237500X0.300000X-0.237500X-0.300000X0*%
%ADD12RoundRect,0.237500X-0.237500X0.287500X-0.237500X-0.287500X0.237500X-0.287500X0.237500X0.287500X0*%
%ADD13RoundRect,0.237500X-0.250000X-0.237500X0.250000X-0.237500X0.250000X0.237500X-0.250000X0.237500X0*%
%ADD14RoundRect,0.072500X-0.532500X-0.217500X0.532500X-0.217500X0.532500X0.217500X-0.532500X0.217500X0*%
%ADD15RoundRect,0.237500X0.300000X0.237500X-0.300000X0.237500X-0.300000X-0.237500X0.300000X-0.237500X0*%
%ADD16RoundRect,0.237500X0.250000X0.237500X-0.250000X0.237500X-0.250000X-0.237500X0.250000X-0.237500X0*%
%ADD17RoundRect,0.150000X0.587500X0.150000X-0.587500X0.150000X-0.587500X-0.150000X0.587500X-0.150000X0*%
%ADD18R,1.350000X0.660000*%
%ADD19R,5.250000X10.300000*%
%ADD20R,5.250000X6.230000*%
%ADD21RoundRect,0.237500X-0.237500X0.250000X-0.237500X-0.250000X0.237500X-0.250000X0.237500X0.250000X0*%
%ADD22RoundRect,0.237500X0.237500X-0.250000X0.237500X0.250000X-0.237500X0.250000X-0.237500X-0.250000X0*%
G04 APERTURE END LIST*
D10*
%TO.C,C19*%
X216053500Y-157988000D03*
X217778500Y-157988000D03*
%TD*%
D11*
%TO.C,C18*%
X212344000Y-149857000D03*
X212344000Y-148132000D03*
%TD*%
D10*
%TO.C,C12*%
X129495000Y-157861000D03*
X131220000Y-157861000D03*
%TD*%
D12*
%TO.C,D1*%
X206248000Y-51449000D03*
X206248000Y-53199000D03*
%TD*%
D13*
%TO.C,R17*%
X192889500Y-157988000D03*
X194714500Y-157988000D03*
%TD*%
D14*
%TO.C,U9*%
X153685000Y-70170000D03*
X153685000Y-71120000D03*
X153685000Y-72070000D03*
X156195000Y-72070000D03*
X156195000Y-71120000D03*
X156195000Y-70170000D03*
%TD*%
D10*
%TO.C,C21*%
X196495500Y-157988000D03*
X198220500Y-157988000D03*
%TD*%
D15*
%TO.C,C9*%
X156310500Y-75184000D03*
X154585500Y-75184000D03*
%TD*%
D13*
%TO.C,R10*%
X183103000Y-157988000D03*
X184928000Y-157988000D03*
%TD*%
D10*
%TO.C,C16*%
X167944000Y-157861000D03*
X169669000Y-157861000D03*
%TD*%
D13*
%TO.C,R13*%
X154893000Y-157854000D03*
X156718000Y-157854000D03*
%TD*%
D16*
%TO.C,R6*%
X156360500Y-64008000D03*
X154535500Y-64008000D03*
%TD*%
%TO.C,R8*%
X156360500Y-66040000D03*
X154535500Y-66040000D03*
%TD*%
D17*
%TO.C,Q1*%
X130350500Y-150302000D03*
X130350500Y-148402000D03*
X128475500Y-149352000D03*
%TD*%
D13*
%TO.C,R4*%
X135612500Y-157861000D03*
X137437500Y-157861000D03*
%TD*%
%TO.C,R11*%
X173712500Y-157861000D03*
X175537500Y-157861000D03*
%TD*%
D15*
%TO.C,C7*%
X204062500Y-68902000D03*
X202337500Y-68902000D03*
%TD*%
D13*
%TO.C,R15*%
X212447500Y-157988000D03*
X214272500Y-157988000D03*
%TD*%
%TO.C,R12*%
X164314500Y-157861000D03*
X166139500Y-157861000D03*
%TD*%
D10*
%TO.C,C14*%
X186716500Y-157988000D03*
X188441500Y-157988000D03*
%TD*%
D13*
%TO.C,R16*%
X202441000Y-157988000D03*
X204266000Y-157988000D03*
%TD*%
%TO.C,R9*%
X116435500Y-157988000D03*
X118260500Y-157988000D03*
%TD*%
D10*
%TO.C,C11*%
X139274000Y-157868000D03*
X140999000Y-157868000D03*
%TD*%
D13*
%TO.C,R1*%
X145055500Y-157861000D03*
X146880500Y-157861000D03*
%TD*%
%TO.C,R5*%
X125833500Y-157861000D03*
X127658500Y-157861000D03*
%TD*%
D10*
%TO.C,C13*%
X120041500Y-157988000D03*
X121766500Y-157988000D03*
%TD*%
D18*
%TO.C,U7*%
X159042000Y-60072000D03*
X159042000Y-61072000D03*
X159042000Y-62072000D03*
X159042000Y-63072000D03*
X159042000Y-64072000D03*
X159042000Y-65072000D03*
X159042000Y-66072000D03*
X159042000Y-67072000D03*
X159042000Y-68072000D03*
X159042000Y-69072000D03*
X159042000Y-70072000D03*
X159042000Y-71072000D03*
X159042000Y-72072000D03*
X159042000Y-73072000D03*
X159042000Y-74072000D03*
X177292000Y-74072000D03*
X177292000Y-73072000D03*
X177292000Y-72072000D03*
X177292000Y-71072000D03*
X177292000Y-70072000D03*
X177292000Y-69072000D03*
X177292000Y-68072000D03*
X177292000Y-67072000D03*
X177292000Y-66072000D03*
X177292000Y-65072000D03*
X177292000Y-64072000D03*
X177292000Y-63072000D03*
X177292000Y-62072000D03*
X177292000Y-61072000D03*
X177292000Y-60072000D03*
D19*
X165117000Y-67072000D03*
D20*
X171217000Y-71237000D03*
X171217000Y-62907000D03*
%TD*%
D10*
%TO.C,C10*%
X148717000Y-157861000D03*
X150442000Y-157861000D03*
%TD*%
%TO.C,C20*%
X206047000Y-157988000D03*
X207772000Y-157988000D03*
%TD*%
D12*
%TO.C,D2*%
X199136000Y-51449000D03*
X199136000Y-53199000D03*
%TD*%
D13*
%TO.C,R7*%
X154535500Y-68042000D03*
X156360500Y-68042000D03*
%TD*%
D10*
%TO.C,C17*%
X158522500Y-157861000D03*
X160247500Y-157861000D03*
%TD*%
%TO.C,C8*%
X197632500Y-68902000D03*
X199357500Y-68902000D03*
%TD*%
D21*
%TO.C,R3*%
X197104000Y-51411500D03*
X197104000Y-53236500D03*
%TD*%
%TO.C,R18*%
X132461000Y-71604500D03*
X132461000Y-73429500D03*
%TD*%
%TO.C,R2*%
X204216000Y-51411500D03*
X204216000Y-53236500D03*
%TD*%
D17*
%TO.C,Q2*%
X130477500Y-73467000D03*
X130477500Y-71567000D03*
X128602500Y-72517000D03*
%TD*%
D21*
%TO.C,R19*%
X132334000Y-148439500D03*
X132334000Y-150264500D03*
%TD*%
D22*
%TO.C,R14*%
X212344000Y-153463000D03*
X212344000Y-151638000D03*
%TD*%
D10*
%TO.C,C15*%
X177318500Y-157861000D03*
X179043500Y-157861000D03*
%TD*%
M02*
