M48
; DRILL file {KiCad 9.0.8-9.0.8~ubuntu22.04.1} date 2026-03-19T16:02:02-0500
; FORMAT={-:-/ absolute / inch / decimal}
; #@! TF.CreationDate,2026-03-19T16:02:02-05:00
; #@! TF.GenerationSoftware,Kicad,Pcbnew,9.0.8-9.0.8~ubuntu22.04.1
; #@! TF.FileFunction,NonPlated,1,2,NPTH
FMAT,2
INCH
; #@! TA.AperFunction,NonPlated,NPTH,ComponentDrill
T1C0.0866
; #@! TA.AperFunction,NonPlated,NPTH,ComponentDrill
T2C0.1260
; #@! TA.AperFunction,NonPlated,NPTH,ComponentDrill
T3C0.1358
%
G90
G05
T1
X4.26Y-2.06
X4.26Y-6.66
X8.7828Y-2.3978
X8.79Y-2.06
X8.79Y-6.66
T2
X5.58Y-2.27
X5.58Y-5.22
X6.18Y-4.27
X7.28Y-4.27
X7.48Y-2.22
X7.48Y-5.47
T3
X4.26Y-2.77
X4.26Y-3.17
X4.26Y-4.86
X4.26Y-5.26
X4.26Y-5.83
X4.26Y-6.13
X4.2748Y-2.4751
X4.275Y-2.285
X4.275Y-3.8
X4.275Y-4.2
X4.5779Y-6.6498
X4.768Y-6.65
X4.931Y-2.075
X4.9556Y-6.6498
X5.1457Y-6.65
X5.231Y-2.075
X5.3379Y-6.6498
X5.528Y-6.65
X5.7179Y-6.6498
X5.908Y-6.65
X6.0949Y-6.6498
X6.285Y-6.65
X6.4649Y-6.6498
X6.655Y-6.65
X6.8379Y-6.6498
X7.028Y-6.65
X7.2149Y-6.6498
X7.405Y-6.65
X7.5979Y-6.6498
X7.788Y-6.65
X7.9756Y-6.6498
X8.1657Y-6.65
X8.3479Y-6.6498
X8.538Y-6.65
X8.785Y-3.18
X8.785Y-3.58
X8.785Y-4.23
X8.785Y-4.63
X8.795Y-6.045
X8.7952Y-5.8549
X8.7954Y-5.2712
X8.7954Y-5.6712
M30
