M48
; DRILL file {KiCad 9.0.8-9.0.8~ubuntu22.04.1} date 2026-03-19T16:02:02-0500
; FORMAT={-:-/ absolute / inch / decimal}
; #@! TF.CreationDate,2026-03-19T16:02:02-05:00
; #@! TF.GenerationSoftware,Kicad,Pcbnew,9.0.8-9.0.8~ubuntu22.04.1
; #@! TF.FileFunction,Plated,1,2,PTH
FMAT,2
INCH
; #@! TA.AperFunction,Plated,PTH,ViaDrill
T1C0.0118
; #@! TA.AperFunction,Plated,PTH,ComponentDrill
T2C0.0315
; #@! TA.AperFunction,Plated,PTH,ComponentDrill
T3C0.0335
; #@! TA.AperFunction,Plated,PTH,ComponentDrill
T4C0.0354
; #@! TA.AperFunction,Plated,PTH,ComponentDrill
T5C0.0394
%
G90
G05
T1
X4.4Y-2.06
X4.4Y-2.26
X4.4Y-2.46
X4.4Y-2.66
X4.4Y-2.86
X4.4Y-3.06
X4.4Y-3.26
X4.4Y-3.46
X4.4Y-3.66
X4.4Y-3.86
X4.4Y-5.46
X4.4Y-5.66
X4.4Y-5.86
X4.4Y-6.06
X4.4Y-6.46
X4.47Y-6.25
X4.57Y-6.275
X4.6Y-2.06
X4.6Y-2.26
X4.6Y-2.66
X4.6Y-3.26
X4.6Y-3.46
X4.6Y-3.66
X4.6Y-4.26
X4.6Y-4.46
X4.6Y-4.66
X4.6Y-4.86
X4.6Y-5.06
X4.6Y-5.26
X4.6Y-6.46
X4.6641Y-6.14
X4.8Y-2.06
X4.8Y-2.26
X4.8Y-2.46
X4.8Y-2.66
X4.8Y-3.46
X4.8Y-3.86
X4.8Y-4.46
X4.8Y-4.66
X4.8Y-4.86
X4.8Y-5.06
X4.8Y-5.26
X4.8Y-5.46
X4.8Y-6.46
X4.805Y-6.28
X4.945Y-2.66
X4.945Y-5.7175
X4.995Y-5.88
X5.0Y-2.26
X5.0Y-2.86
X5.0Y-3.01
X5.0Y-3.46
X5.0Y-3.86
X5.0Y-4.06
X5.0Y-4.46
X5.0Y-4.66
X5.0Y-4.86
X5.0Y-5.06
X5.0Y-5.835
X5.0Y-6.26
X5.0Y-6.46
X5.02Y-2.47
X5.03Y-5.97
X5.065Y-3.115
X5.135Y-5.7175
X5.14Y-2.47
X5.16Y-3.01
X5.2Y-2.26
X5.2Y-3.11
X5.2Y-3.86
X5.2Y-4.06
X5.2Y-4.66
X5.2Y-4.86
X5.2Y-5.06
X5.2Y-5.66
X5.2Y-6.06
X5.2Y-6.26
X5.2Y-6.46
X5.205Y-3.065
X5.205Y-5.775
X5.295Y-2.6604
X5.31Y-5.9103
X5.34Y-5.94
X5.4Y-2.06
X5.4Y-2.26
X5.4Y-2.46
X5.4Y-3.26
X5.4Y-3.66
X5.4Y-3.86
X5.4Y-4.06
X5.4Y-4.26
X5.4Y-4.46
X5.4Y-4.66
X5.4Y-4.86
X5.4Y-5.06
X5.4Y-5.26
X5.4Y-5.46
X5.4Y-5.66
X5.4Y-5.86
X5.4Y-6.06
X5.4Y-6.46
X5.425Y-5.94
X5.43Y-3.01
X5.43Y-3.11
X5.465Y-5.97
X5.5Y-6.01
X5.57Y-5.715
X5.6Y-2.06
X5.6Y-2.46
X5.6Y-3.26
X5.6Y-4.26
X5.6Y-5.86
X5.6Y-6.06
X5.6Y-6.26
X5.6Y-6.46
X5.625Y-5.965
X5.71Y-2.77
X5.72Y-5.935
X5.73Y-3.3457
X5.78Y-2.3
X5.8Y-2.06
X5.8Y-2.26
X5.8Y-2.46
X5.8Y-3.06
X5.8Y-3.26
X5.8Y-5.66
X5.8Y-5.86
X5.8Y-6.06
X5.8Y-6.46
X5.83Y-2.96
X5.83Y-3.87
X5.845Y-2.915
X5.91Y-2.89
X5.95Y-2.31
X5.95Y-2.645
X6.0Y-2.06
X6.0Y-2.26
X6.0Y-2.46
X6.0Y-2.86
X6.0Y-5.66
X6.0Y-5.86
X6.0Y-6.06
X6.0Y-6.26
X6.0Y-6.46
X6.01Y-5.61
X6.02Y-3.06
X6.0506Y-2.7626
X6.0841Y-2.52
X6.126Y-2.5619
X6.1494Y-2.8
X6.15Y-2.76
X6.1559Y-2.52
X6.16Y-2.6
X6.16Y-2.68
X6.2Y-2.06
X6.2Y-2.26
X6.2Y-2.46
X6.2Y-2.73
X6.2Y-3.06
X6.2Y-3.26
X6.2Y-3.46
X6.2Y-3.66
X6.2Y-3.86
X6.2Y-4.06
X6.2Y-4.46
X6.2Y-4.66
X6.2Y-4.86
X6.2Y-5.06
X6.2Y-5.26
X6.2Y-5.66
X6.2Y-5.86
X6.2Y-6.06
X6.2Y-6.46
X6.26Y-2.52
X6.26Y-2.7981
X6.26Y-4.91
X6.2615Y-2.365
X6.2615Y-2.4438
X6.2615Y-2.5619
X6.2615Y-2.6406
X6.2615Y-2.68
X6.2615Y-2.7194
X6.2615Y-2.9162
X6.31Y-3.1
X6.35Y-3.309
X6.36Y-5.01
X6.4Y-2.06
X6.4Y-2.26
X6.4Y-3.06
X6.4Y-3.26
X6.4Y-3.46
X6.4Y-3.66
X6.4Y-3.86
X6.4Y-4.06
X6.4Y-4.26
X6.4Y-4.46
X6.4Y-4.66
X6.4Y-4.86
X6.4Y-5.66
X6.4Y-5.86
X6.4Y-6.06
X6.4Y-6.26
X6.4Y-6.46
X6.49Y-3.11
X6.5007Y-2.4607
X6.5007Y-2.7993
X6.6Y-2.06
X6.6Y-2.26
X6.6Y-3.06
X6.6Y-3.26
X6.6Y-3.46
X6.6Y-3.66
X6.6Y-3.86
X6.6Y-4.06
X6.6Y-4.26
X6.6Y-4.46
X6.6Y-4.66
X6.6Y-4.86
X6.6Y-5.06
X6.6Y-5.26
X6.6Y-5.66
X6.6Y-5.86
X6.6Y-6.06
X6.6Y-6.46
X6.665Y-2.385
X6.665Y-2.475
X6.665Y-2.565
X6.665Y-2.71
X6.665Y-2.805
X6.665Y-2.895
X6.685Y-2.31
X6.74Y-2.385
X6.74Y-2.565
X6.74Y-2.895
X6.7408Y-2.4767
X6.7408Y-2.8046
X6.745Y-2.71
X6.8Y-2.06
X6.8Y-2.26
X6.8Y-3.06
X6.8Y-3.26
X6.8Y-3.46
X6.8Y-3.66
X6.8Y-3.86
X6.8Y-4.06
X6.8Y-4.26
X6.8Y-4.46
X6.8Y-4.66
X6.8Y-4.86
X6.8Y-5.06
X6.8Y-5.26
X6.8Y-5.66
X6.8Y-5.86
X6.8Y-6.06
X6.8Y-6.26
X6.8Y-6.46
X6.81Y-2.805
X6.81Y-2.895
X6.815Y-2.385
X6.815Y-2.475
X6.815Y-2.565
X6.815Y-2.71
X6.84Y-6.215
X6.85Y-4.03
X6.95Y-3.93
X6.98Y-2.37
X6.98Y-2.56
X6.98Y-2.72
X6.98Y-2.92
X7.0Y-2.06
X7.0Y-2.26
X7.0Y-3.06
X7.0Y-3.26
X7.0Y-3.46
X7.0Y-3.66
X7.0Y-3.86
X7.0Y-4.06
X7.0Y-4.26
X7.0Y-4.46
X7.0Y-4.66
X7.0Y-4.86
X7.0Y-5.06
X7.0Y-5.26
X7.0Y-5.66
X7.0Y-5.86
X7.0Y-6.06
X7.0Y-6.46
X7.15Y-5.58
X7.2Y-2.06
X7.2Y-2.26
X7.2Y-2.46
X7.2Y-2.66
X7.2Y-2.86
X7.2Y-3.06
X7.2Y-3.26
X7.2Y-3.46
X7.2Y-3.66
X7.2Y-3.86
X7.2Y-4.06
X7.2Y-4.46
X7.2Y-4.66
X7.2Y-4.86
X7.2Y-5.06
X7.2Y-5.26
X7.2Y-5.66
X7.2Y-5.86
X7.2Y-6.06
X7.2Y-6.26
X7.2Y-6.46
X7.205Y-6.225
X7.355Y-5.66
X7.365Y-4.075
X7.4Y-2.06
X7.4Y-2.26
X7.4Y-2.46
X7.4Y-2.66
X7.4Y-2.86
X7.4Y-3.06
X7.4Y-3.26
X7.4Y-3.66
X7.4Y-3.86
X7.4Y-5.86
X7.4Y-6.06
X7.4Y-6.26
X7.4Y-6.46
X7.48Y-2.61
X7.505Y-5.865
X7.55Y-2.31
X7.565Y-5.945
X7.59Y-5.34
X7.595Y-6.22
X7.6Y-2.46
X7.6Y-2.66
X7.6Y-2.86
X7.6Y-3.06
X7.6Y-3.26
X7.6Y-3.46
X7.6Y-4.06
X7.6Y-4.26
X7.6Y-4.66
X7.6Y-4.86
X7.6Y-5.46
X7.6Y-5.66
X7.6Y-5.86
X7.6Y-6.06
X7.6Y-6.26
X7.6Y-6.46
X7.7Y-2.02
X7.8Y-2.06
X7.8Y-2.26
X7.8Y-2.46
X7.8Y-2.86
X7.8Y-3.08
X7.8Y-3.26
X7.8Y-3.46
X7.8Y-3.66
X7.8Y-3.86
X7.8Y-4.02
X7.8Y-4.12
X7.8Y-4.26
X7.8Y-4.46
X7.8Y-4.66
X7.8Y-4.86
X7.8Y-5.06
X7.8Y-5.26
X7.8Y-5.46
X7.8Y-5.66
X7.8Y-5.86
X7.8Y-6.26
X7.8Y-6.46
X7.9Y-2.02
X7.905Y-2.665
X7.92Y-3.08
X7.92Y-4.12
X7.97Y-6.22
X8.0Y-3.26
X8.0Y-3.46
X8.0Y-3.66
X8.0Y-3.86
X8.0Y-4.26
X8.0Y-4.46
X8.0Y-4.66
X8.0Y-4.86
X8.0Y-5.46
X8.0Y-5.66
X8.0Y-5.86
X8.0Y-6.26
X8.0Y-6.46
X8.04Y-5.28
X8.15Y-3.81
X8.16Y-2.02
X8.17Y-3.79
X8.17Y-3.83
X8.19Y-3.81
X8.19Y-3.85
X8.2Y-2.06
X8.2Y-2.26
X8.2Y-2.66
X8.2Y-3.66
X8.2Y-4.66
X8.2Y-5.06
X8.2Y-5.26
X8.2Y-5.86
X8.2Y-6.26
X8.2Y-6.46
X8.21Y-3.83
X8.215Y-2.66
X8.3641Y-6.22
X8.4Y-2.06
X8.4Y-2.26
X8.4Y-2.66
X8.4Y-3.06
X8.4Y-3.26
X8.4Y-3.46
X8.4Y-3.66
X8.4Y-4.06
X8.4Y-4.66
X8.4Y-5.06
X8.4Y-5.66
X8.4Y-5.86
X8.4Y-6.06
X8.4Y-6.46
X8.6Y-2.06
X8.6Y-2.26
X8.6Y-2.46
X8.6Y-2.66
X8.6Y-5.06
X8.6Y-5.26
X8.6Y-5.46
X8.6Y-5.66
X8.6Y-5.86
X8.6Y-6.06
X8.6Y-6.26
X8.6Y-6.46
X8.8Y-2.26
X8.8Y-2.66
X8.8Y-2.86
X8.8Y-3.06
X8.8Y-3.3
X8.8Y-3.46
X8.8Y-3.68
X8.8Y-3.86
X8.8Y-4.06
X8.8Y-4.46
X8.8Y-4.86
X8.8Y-5.06
X8.8Y-5.46
X8.8Y-6.26
X8.8Y-6.46
T2
X4.56Y-3.4073
X4.56Y-3.5451
X4.56Y-4.4473
X4.56Y-4.5851
X4.56Y-5.49
X4.56Y-5.6278
X4.82Y-2.82
X4.82Y-2.92
X4.82Y-3.02
X4.82Y-3.12
X4.82Y-3.22
X4.82Y-3.32
X4.82Y-3.42
X4.82Y-3.52
X4.82Y-3.86
X4.82Y-3.96
X4.82Y-4.06
X4.82Y-4.16
X4.82Y-4.26
X4.82Y-4.36
X4.82Y-4.46
X4.82Y-4.56
X4.82Y-4.91
X4.82Y-5.01
X4.82Y-5.11
X4.82Y-5.21
X4.82Y-5.31
X4.82Y-5.41
X4.82Y-5.51
X4.82Y-5.61
X5.32Y-2.82
X5.32Y-2.92
X5.32Y-3.02
X5.32Y-3.12
X5.32Y-3.22
X5.32Y-3.32
X5.32Y-3.42
X5.32Y-3.52
X5.32Y-3.86
X5.32Y-3.96
X5.32Y-4.06
X5.32Y-4.16
X5.32Y-4.26
X5.32Y-4.36
X5.32Y-4.46
X5.32Y-4.56
X5.32Y-4.91
X5.32Y-5.01
X5.32Y-5.11
X5.32Y-5.21
X5.32Y-5.31
X5.32Y-5.41
X5.32Y-5.51
X5.32Y-5.61
X7.7296Y-3.8688
X7.7296Y-3.9688
X7.7296Y-4.0688
X7.7296Y-4.1688
X7.7296Y-4.2688
X7.7296Y-4.3688
X7.7296Y-4.4688
X7.7296Y-4.5688
X7.74Y-2.84
X7.74Y-2.94
X7.74Y-3.04
X7.74Y-3.14
X7.74Y-3.24
X7.74Y-3.34
X7.74Y-3.44
X7.74Y-3.54
X7.74Y-4.92
X7.74Y-5.02
X7.74Y-5.12
X7.74Y-5.22
X7.74Y-5.32
X7.74Y-5.42
X7.74Y-5.52
X7.74Y-5.62
X8.2296Y-3.8688
X8.2296Y-3.9688
X8.2296Y-4.0688
X8.2296Y-4.1688
X8.2296Y-4.2688
X8.2296Y-4.3688
X8.2296Y-4.4688
X8.2296Y-4.5688
X8.24Y-2.84
X8.24Y-2.94
X8.24Y-3.04
X8.24Y-3.14
X8.24Y-3.24
X8.24Y-3.34
X8.24Y-3.44
X8.24Y-3.54
X8.24Y-4.92
X8.24Y-5.02
X8.24Y-5.12
X8.24Y-5.22
X8.24Y-5.32
X8.24Y-5.42
X8.24Y-5.52
X8.24Y-5.62
X8.48Y-3.8488
X8.48Y-3.9866
X8.4904Y-2.8149
X8.4904Y-2.9527
X8.5Y-4.9022
X8.5Y-5.04
T3
X5.58Y-2.41
X5.58Y-2.51
X5.58Y-2.61
X5.58Y-2.71
X5.58Y-2.81
X5.58Y-2.91
X5.58Y-3.01
X5.58Y-3.11
X5.58Y-3.21
X5.58Y-3.31
X5.58Y-3.47
X5.58Y-3.57
X5.58Y-3.67
X5.58Y-3.77
X5.58Y-3.87
X5.58Y-3.97
X5.58Y-4.07
X5.58Y-4.17
X5.58Y-4.37
X5.58Y-4.47
X5.58Y-4.57
X5.58Y-4.67
X5.58Y-4.77
X5.58Y-4.87
X5.58Y-4.97
X5.58Y-5.07
X5.58Y-5.37
X5.58Y-5.47
X5.68Y-5.37
X5.68Y-5.47
X5.78Y-5.37
X5.78Y-5.47
X5.88Y-5.37
X5.88Y-5.47
X5.98Y-5.37
X5.98Y-5.47
X6.08Y-5.37
X6.08Y-5.47
X6.18Y-5.37
X6.18Y-5.47
X6.28Y-5.37
X6.28Y-5.47
X6.38Y-5.37
X6.38Y-5.47
X6.48Y-5.37
X6.48Y-5.47
X6.58Y-5.37
X6.58Y-5.47
X6.68Y-5.37
X6.68Y-5.47
X6.78Y-5.37
X6.78Y-5.47
X6.88Y-5.37
X6.88Y-5.47
X6.98Y-5.37
X6.98Y-5.47
X7.08Y-5.37
X7.08Y-5.47
X7.18Y-5.37
X7.18Y-5.47
X7.28Y-5.37
X7.28Y-5.47
X7.48Y-2.77
X7.48Y-2.87
X7.48Y-2.97
X7.48Y-3.07
X7.48Y-3.17
X7.48Y-3.27
X7.48Y-3.37
X7.48Y-3.47
X7.48Y-3.67
X7.48Y-3.77
X7.48Y-3.87
X7.48Y-3.97
X7.48Y-4.07
X7.48Y-4.17
X7.48Y-4.27
X7.48Y-4.37
X7.48Y-4.57
X7.48Y-4.67
X7.48Y-4.77
X7.48Y-4.87
X7.48Y-4.97
X7.48Y-5.07
X7.48Y-5.16
X7.48Y-5.26
X7.8Y-2.56
X7.9Y-2.56
X8.0Y-2.56
T4
X4.6Y-2.82
X4.6Y-2.92
X4.6Y-3.02
X4.6Y-3.12
X4.6Y-4.91
X4.6Y-5.01
X4.6Y-5.11
X4.6Y-5.21
X4.6Y-5.88
X4.6Y-5.98
X4.6Y-6.08
X4.615Y-2.33
X4.615Y-2.43
X4.615Y-3.85
X4.615Y-3.95
X4.615Y-4.05
X4.615Y-4.15
X4.6229Y-6.3098
X4.7229Y-6.3098
X4.981Y-2.415
X5.0006Y-6.3098
X5.081Y-2.415
X5.1006Y-6.3098
X5.181Y-2.415
X5.3829Y-6.3098
X5.4829Y-6.3098
X5.7629Y-6.3098
X5.8629Y-6.3098
X6.1399Y-6.3098
X6.2399Y-6.3098
X6.5099Y-6.3098
X6.6099Y-6.3098
X6.8829Y-6.3098
X6.9829Y-6.3098
X7.2599Y-6.3098
X7.3599Y-6.3098
X7.6429Y-6.3098
X7.7429Y-6.3098
X8.0206Y-6.3098
X8.1206Y-6.3098
X8.3929Y-6.3098
X8.445Y-3.23
X8.445Y-3.33
X8.445Y-3.43
X8.445Y-3.53
X8.445Y-4.28
X8.445Y-4.38
X8.445Y-4.48
X8.445Y-4.58
X8.455Y-5.9
X8.455Y-6.0
X8.4554Y-5.3212
X8.4554Y-5.4212
X8.4554Y-5.5212
X8.4554Y-5.6212
X8.4929Y-6.3098
T5
X4.755Y-5.88
X4.755Y-5.98
X4.755Y-6.08
X4.98Y-2.56
X5.08Y-2.56
X5.0902Y-3.22
X5.0902Y-3.32
X5.0902Y-3.42
X5.0902Y-4.26
X5.0902Y-4.36
X5.0902Y-4.46
X5.0902Y-5.31
X5.0902Y-5.41
X5.0902Y-5.51
X5.18Y-2.56
X5.1902Y-3.22
X5.1902Y-3.32
X5.1902Y-3.42
X5.1902Y-4.26
X5.1902Y-4.36
X5.1902Y-4.46
X5.1902Y-5.31
X5.1902Y-5.41
X5.1902Y-5.51
X7.8598Y-3.965
X7.8598Y-4.065
X7.8598Y-4.165
X7.8698Y-5.02
X7.8698Y-5.12
X7.8698Y-5.22
X7.87Y-2.94
X7.87Y-3.04
X7.87Y-3.14
X7.9598Y-3.965
X7.9598Y-4.065
X7.9598Y-4.165
X7.9698Y-5.02
X7.9698Y-5.12
X7.9698Y-5.22
X7.97Y-2.94
X7.97Y-3.04
X7.97Y-3.14
T5
G00X8.3694Y-2.4431
M15
G01X8.3694Y-2.3526
M16
G05
G00X8.4482Y-2.2089
M15
G01X8.5269Y-2.2089
M16
G05
G00X8.6057Y-2.4372
M15
G01X8.6057Y-2.3585
M16
G05
M30
